<svg xmlns="http://www.w3.org/2000/svg" viewBox="0 0 400 60" fill="none">
    <!-- Samsul -->
    <path d="M15 45c-8 0-12-7-12-15s4-15 12-15c6 0 10 4 11 10h-6c-1-3-2-5-5-5-4 0-6 4-6 10s2 10 6 10c3 0 4-2 5-5h6c-1 6-5 10-11 10z" fill="white"/>
    <path d="M35 45c-8 0-12-7-12-15s4-15 12-15c8 0 12 7 12 15s-4 15-12 15zm0-25c-4 0-6 4-6 10s2 10 6 10c4 0 6-4 6-10s-2-10-6-10z" fill="white"/>
    <path d="M65 15l-10 30h-6l-10-30h6l7 22 7-22h6z" fill="white"/>
    <path d="M85 45c-8 0-12-7-12-15s4-15 12-15c8 0 12 7 12 15s-4 15-12 15zm0-25c-4 0-6 4-6 10s2 10 6 10c4 0 6-4 6-10s-2-10-6-10z" fill="white"/>
    <path d="M105 15v30h-6V15h6z" fill="white"/>
    
    <!-- Arifin -->
    <path d="M160 15l-10 30h-6l-10-30h6l7 22 7-22h6z" fill="white"/>
    <path d="M180 45c-8 0-12-7-12-15s4-15 12-15c6 0 10 4 11 10h-6c-1-3-2-5-5-5-4 0-6 4-6 10s2 10 6 10c3 0 4-2 5-5h6c-1 6-5 10-11 10z" fill="white"/>
    <path d="M200 15v30h-6V15h6z" fill="white"/>
    <path d="M220 45c-8 0-12-7-12-15s4-15 12-15c8 0 12 7 12 15s-4 15-12 15zm0-25c-4 0-6 4-6 10s2 10 6 10c4 0 6-4 6-10s-2-10-6-10z" fill="white"/>
    <path d="M240 15v30h-6V15h6z" fill="white"/>
    <path d="M260 45c-8 0-12-7-12-15s4-15 12-15c8 0 12 7 12 15s-4 15-12 15zm0-25c-4 0-6 4-6 10s2 10 6 10c4 0 6-4 6-10s-2-10-6-10z" fill="white"/>
    
    <!-- Red dot -->
    <path d="M380 45V40h4v5h-4z" fill="#F13024"/>
</svg>